<svg width="151" height="81" viewBox="0 0 151 81" fill="none" xmlns="http://www.w3.org/2000/svg">
<path d="M33.2538 31.2683C35.3152 30.242 36.9692 28.5492 37.9477 26.4647C38.9261 24.3802 39.1715 22.0262 38.644 19.7847C38.1166 17.5432 36.8472 15.5457 35.0419 14.1162C33.2366 12.6868 31.0012 11.9092 28.6985 11.9098H10.4153C8.11261 11.9092 5.87726 12.6868 4.07195 14.1162C2.26663 15.5457 0.997279 17.5432 0.469826 19.7847C-0.0576262 22.0262 0.187771 24.3802 1.1662 26.4647C2.14464 28.5492 3.7987 30.242 5.86003 31.2683C4.15938 32.1146 2.72852 33.4185 1.72832 35.0335C0.728122 36.6484 0.198243 38.5103 0.198256 40.4099C0.19827 42.3095 0.728176 44.1714 1.7284 45.7863C2.72862 47.4012 4.1595 48.7051 5.86016 49.5514C4.23145 50.3631 2.84914 51.5952 1.85618 53.1202C0.863214 54.6452 0.295642 56.4078 0.212154 58.2256C0.128666 60.0435 0.532294 61.8507 1.3813 63.4603C2.2303 65.0698 3.49386 66.4234 5.04131 67.381C6.58876 68.3386 8.36392 68.8655 10.1832 68.9071C12.0025 68.9487 13.7999 68.5036 15.3896 67.6178C16.9792 66.732 18.3033 65.4376 19.2251 63.8685C20.1468 62.2994 20.6327 60.5126 20.6324 58.6928V46.6697C21.5728 47.8823 22.7743 48.8674 24.1477 49.5518C25.5211 50.2362 27.0311 50.6023 28.5655 50.623C30.0998 50.6436 31.6191 50.3182 33.0104 49.671C34.4017 49.0237 35.6293 48.0713 36.602 46.8844C37.5746 45.6976 38.2673 44.3068 38.6285 42.8154C38.9898 41.3241 39.0104 39.7705 38.6887 38.2701C38.367 36.7697 37.7113 35.361 36.7704 34.1489C35.8295 32.9367 34.6275 31.9521 33.2538 31.2683ZM36.7646 22.1269C36.7622 24.2645 35.9123 26.3139 34.4013 27.8259C32.8903 29.3379 30.8414 30.1891 28.7038 30.1928L28.6985 30.1927L28.6882 30.193L20.6324 30.1927V14.0608H28.6985C30.837 14.0632 32.8873 14.9138 34.3994 16.4259C35.9116 17.9381 36.7622 19.9883 36.7646 22.1269ZM22.4385 32.3437C21.7639 32.8686 21.1572 33.4753 20.6324 34.1499V32.3437L22.4385 32.3437ZM2.34922 22.1269C2.35164 19.9883 3.20224 17.9381 4.71441 16.4259C6.22657 14.9138 8.27681 14.0632 10.4153 14.0608H18.4814V30.1927H10.4153L10.4102 30.1928C8.27261 30.1891 6.2237 29.3379 4.71264 27.8259C3.20158 26.3139 2.35167 24.2645 2.34922 22.1269ZM10.4153 66.7588C9.35554 66.7597 8.30596 66.5517 7.32659 66.1467C6.34722 65.7418 5.45726 65.1478 4.70757 64.3987C3.95787 63.6496 3.36315 62.7601 2.95738 61.7811C2.55162 60.802 2.34277 59.7526 2.34277 58.6928C2.34277 57.6331 2.55162 56.5836 2.95738 55.6046C3.36315 54.6256 3.95787 53.7361 4.70757 52.987C5.45726 52.2379 6.34722 51.6439 7.32659 51.239C8.30596 50.834 9.35554 50.626 10.4153 50.6269L18.4814 50.6266V58.6928C18.479 60.8314 17.6284 62.8816 16.1162 64.3937C14.6041 65.9059 12.5538 66.7564 10.4153 66.7588ZM18.4814 48.4756L10.4153 48.4759C8.27676 48.4755 6.22586 47.6259 4.71355 46.1138C3.20123 44.6018 2.3513 42.551 2.35063 40.4124C2.34995 38.2738 3.19858 36.2225 4.70993 34.7095C6.22129 33.1964 8.27165 32.3455 10.4102 32.3438L10.4153 32.3439L18.4814 32.3437V48.4756ZM28.6985 48.4759C26.5606 48.4752 24.5105 47.6258 22.9985 46.1144C21.4865 44.6029 20.6365 42.553 20.6351 40.4151C20.6337 38.2772 21.4811 36.2262 22.9912 34.7128C24.5012 33.1994 26.5503 32.3474 28.6882 32.3439H28.6985L28.7036 32.3438C30.8416 32.3465 32.8909 33.1979 34.4015 34.7108C35.912 36.2237 36.7602 38.2745 36.7595 40.4124C36.7588 42.5503 35.9094 44.6005 34.3979 46.1125C32.8864 47.6245 30.8364 48.4746 28.6985 48.4759Z" fill="white"/>
<path d="M50.6515 28.7058H68.3995V32.5938H55.1515V39.3258H66.7795V42.9978H55.1515V54.4098H50.6515V28.7058ZM71.527 28.7058H75.631V32.5938H71.527V28.7058ZM71.527 35.7978H75.631V54.4098H71.527V35.7978ZM97.3142 53.4378C97.3142 56.2458 96.5222 58.3338 94.9382 59.7018C93.3782 61.0938 91.1222 61.7898 88.1702 61.7898C87.2342 61.7898 86.2862 61.6938 85.3262 61.5018C84.3902 61.3098 83.5262 60.9858 82.7342 60.5298C81.9662 60.0738 81.3182 59.4738 80.7902 58.7298C80.2622 57.9858 79.9502 57.0738 79.8542 55.9938H83.9582C84.0782 56.5698 84.2822 57.0378 84.5702 57.3978C84.8582 57.7578 85.1942 58.0338 85.5782 58.2258C85.9862 58.4418 86.4302 58.5738 86.9102 58.6218C87.3902 58.6938 87.8942 58.7298 88.4222 58.7298C90.0782 58.7298 91.2902 58.3218 92.0582 57.5058C92.8262 56.6898 93.2102 55.5138 93.2102 53.9778V51.1338H93.1382C92.5622 52.1658 91.7702 52.9698 90.7622 53.5458C89.7782 54.1218 88.7102 54.4098 87.5582 54.4098C86.0702 54.4098 84.7982 54.1578 83.7422 53.6538C82.7102 53.1258 81.8462 52.4178 81.1502 51.5298C80.4782 50.6178 79.9862 49.5738 79.6742 48.3978C79.3622 47.2218 79.2062 45.9618 79.2062 44.6178C79.2062 43.3698 79.3982 42.1818 79.7822 41.0538C80.1662 39.9258 80.7182 38.9418 81.4382 38.1018C82.1582 37.2378 83.0342 36.5538 84.0662 36.0498C85.1222 35.5458 86.3102 35.2938 87.6302 35.2938C88.8062 35.2938 89.8862 35.5458 90.8702 36.0498C91.8542 36.5298 92.6102 37.2978 93.1382 38.3538H93.2102V35.7978H97.3142V53.4378ZM88.2062 51.1698C89.1182 51.1698 89.8862 50.9898 90.5102 50.6298C91.1582 50.2458 91.6742 49.7538 92.0582 49.1538C92.4662 48.5298 92.7542 47.8338 92.9222 47.0658C93.1142 46.2738 93.2102 45.4818 93.2102 44.6898C93.2102 43.8978 93.1142 43.1298 92.9222 42.3858C92.7302 41.6418 92.4302 40.9818 92.0222 40.4058C91.6382 39.8298 91.1222 39.3738 90.4742 39.0378C89.8502 38.7018 89.0942 38.5338 88.2062 38.5338C87.2942 38.5338 86.5262 38.7258 85.9022 39.1098C85.2782 39.4938 84.7742 39.9978 84.3902 40.6218C84.0062 41.2218 83.7302 41.9178 83.5622 42.7098C83.3942 43.4778 83.3102 44.2458 83.3102 45.0138C83.3102 45.7818 83.4062 46.5378 83.5982 47.2818C83.7902 48.0018 84.0782 48.6498 84.4622 49.2258C84.8702 49.8018 85.3742 50.2698 85.9742 50.6298C86.5982 50.9898 87.3422 51.1698 88.2062 51.1698ZM101.45 35.7978H105.338V38.3898H105.446C105.758 37.9338 106.094 37.5138 106.454 37.1298C106.814 36.7458 107.21 36.4218 107.642 36.1578C108.098 35.8938 108.614 35.6898 109.19 35.5458C109.766 35.3778 110.426 35.2938 111.17 35.2938C112.298 35.2938 113.342 35.5458 114.302 36.0498C115.286 36.5538 115.982 37.3338 116.39 38.3898C117.086 37.4298 117.89 36.6738 118.802 36.1218C119.714 35.5698 120.854 35.2938 122.222 35.2938C124.19 35.2938 125.714 35.7738 126.794 36.7338C127.898 37.6938 128.45 39.3018 128.45 41.5578V54.4098H124.346V43.5378C124.346 42.7938 124.322 42.1218 124.274 41.5218C124.226 40.8978 124.082 40.3698 123.842 39.9378C123.626 39.4818 123.29 39.1338 122.834 38.8938C122.378 38.6538 121.754 38.5338 120.962 38.5338C119.57 38.5338 118.562 38.9658 117.938 39.8298C117.314 40.6938 117.002 41.9178 117.002 43.5018V54.4098H112.898V42.4578C112.898 41.1618 112.658 40.1898 112.178 39.5418C111.722 38.8698 110.87 38.5338 109.622 38.5338C109.094 38.5338 108.578 38.6418 108.074 38.8578C107.594 39.0738 107.162 39.3858 106.778 39.7938C106.418 40.2018 106.118 40.7058 105.878 41.3058C105.662 41.9058 105.554 42.5898 105.554 43.3578V54.4098H101.45V35.7978ZM148.365 50.2698C148.365 50.7738 148.425 51.1338 148.545 51.3498C148.689 51.5658 148.953 51.6738 149.337 51.6738C149.457 51.6738 149.601 51.6738 149.769 51.6738C149.937 51.6738 150.129 51.6498 150.345 51.6018V54.4458C150.201 54.4938 150.009 54.5418 149.769 54.5898C149.553 54.6618 149.325 54.7218 149.085 54.7698C148.845 54.8178 148.605 54.8538 148.365 54.8778C148.125 54.9018 147.921 54.9138 147.753 54.9138C146.913 54.9138 146.217 54.7458 145.665 54.4098C145.113 54.0738 144.753 53.4858 144.585 52.6458C143.769 53.4378 142.761 54.0138 141.561 54.3738C140.385 54.7338 139.245 54.9138 138.141 54.9138C137.301 54.9138 136.497 54.7938 135.729 54.5538C134.961 54.3378 134.277 54.0138 133.677 53.5818C133.101 53.1258 132.633 52.5618 132.273 51.8898C131.937 51.1938 131.769 50.3898 131.769 49.4778C131.769 48.3258 131.973 47.3898 132.381 46.6698C132.813 45.9498 133.365 45.3858 134.037 44.9778C134.733 44.5698 135.501 44.2818 136.341 44.1138C137.205 43.9218 138.069 43.7778 138.933 43.6818C139.677 43.5378 140.385 43.4418 141.057 43.3938C141.729 43.3218 142.317 43.2138 142.821 43.0698C143.349 42.9258 143.757 42.7098 144.045 42.4218C144.357 42.1098 144.513 41.6538 144.513 41.0538C144.513 40.5258 144.381 40.0938 144.117 39.7578C143.877 39.4218 143.565 39.1698 143.181 39.0018C142.821 38.8098 142.413 38.6898 141.957 38.6418C141.501 38.5698 141.069 38.5338 140.661 38.5338C139.509 38.5338 138.561 38.7738 137.817 39.2538C137.073 39.7338 136.653 40.4778 136.557 41.4858H132.453C132.525 40.2858 132.813 39.2898 133.317 38.4978C133.821 37.7058 134.457 37.0698 135.225 36.5898C136.017 36.1098 136.905 35.7738 137.889 35.5818C138.873 35.3898 139.881 35.2938 140.913 35.2938C141.825 35.2938 142.725 35.3898 143.613 35.5818C144.501 35.7738 145.293 36.0858 145.989 36.5178C146.709 36.9498 147.285 37.5138 147.717 38.2098C148.149 38.8818 148.365 39.7098 148.365 40.6938V50.2698ZM144.261 45.0858C143.637 45.4938 142.869 45.7458 141.957 45.8418C141.045 45.9138 140.133 46.0338 139.221 46.2018C138.789 46.2738 138.369 46.3818 137.961 46.5258C137.553 46.6458 137.193 46.8258 136.881 47.0658C136.569 47.2818 136.317 47.5818 136.125 47.9658C135.957 48.3258 135.873 48.7698 135.873 49.2978C135.873 49.7538 136.005 50.1378 136.269 50.4498C136.533 50.7618 136.845 51.0138 137.205 51.2058C137.589 51.3738 137.997 51.4938 138.429 51.5658C138.885 51.6378 139.293 51.6738 139.653 51.6738C140.109 51.6738 140.601 51.6138 141.129 51.4938C141.657 51.3738 142.149 51.1698 142.605 50.8818C143.085 50.5938 143.481 50.2338 143.793 49.8018C144.105 49.3458 144.261 48.7938 144.261 48.1458V45.0858Z" fill="white"/>
</svg>
