<svg width="189" height="81" viewBox="0 0 189 81" fill="none" xmlns="http://www.w3.org/2000/svg">
<path fill-rule="evenodd" clip-rule="evenodd" d="M41.6294 9.7227C58.4101 9.7227 72.0127 23.6684 72.0127 40.8745C72.0127 54.6351 63.317 66.3085 51.2518 70.4315C49.7114 70.7383 49.1645 69.7655 49.1645 68.936C49.1645 67.9091 49.2009 64.5549 49.2009 60.3863C49.2009 57.4816 48.2287 55.5859 47.1379 54.6197C53.9043 53.8479 61.014 51.2135 61.014 39.2485C61.014 35.8456 59.8351 33.0687 57.8845 30.8872C58.2005 30.1002 59.2426 26.9317 57.5867 22.6415C57.5867 22.6415 55.0406 21.8068 49.2404 25.8357C46.8128 25.1459 44.212 24.7989 41.6294 24.7868C39.0468 24.7989 36.4491 25.1459 34.0245 25.8357C28.2182 21.8068 25.666 22.6415 25.666 22.6415C24.0162 26.9317 25.0584 30.1002 25.3713 30.8872C23.4298 33.0687 22.2418 35.8456 22.2418 39.2485C22.2418 51.1831 29.3363 53.858 36.0845 54.6449C35.2155 55.4227 34.4286 56.7948 34.1551 58.8093C32.4233 59.6053 28.0238 60.983 25.3136 56.2219C25.3136 56.2219 23.7063 53.2288 20.6558 53.01C20.6558 53.01 17.6934 52.9707 20.4492 54.903C20.4492 54.903 22.4393 55.8601 23.8217 59.4605C23.8217 59.4605 25.6053 65.0206 34.0579 63.1368C34.0731 65.7407 34.1004 68.1947 34.1004 68.936C34.1004 69.7594 33.5414 70.7231 32.0252 70.4344C19.9509 66.3175 11.2461 54.6381 11.2461 40.8745C11.2461 23.6684 24.8517 9.7227 41.6294 9.7227Z" fill="white"/>
<path d="M102.401 38.3219H93.3863C93.1553 38.3219 92.965 38.5088 92.965 38.7432V43.1467C92.965 43.3812 93.1519 43.568 93.3863 43.568H96.903V49.0452C96.903 49.0452 96.1147 49.3103 93.9334 49.3103C91.3578 49.3103 87.7596 48.3657 87.7596 40.4625C87.7596 32.5525 91.504 31.5127 95.0206 31.5127C98.0651 31.5127 99.3766 32.0462 100.209 32.3078C100.471 32.3894 100.709 32.1277 100.709 31.8933L101.714 27.6359C101.714 27.5271 101.677 27.3946 101.555 27.3063C101.215 27.0684 99.1489 25.9098 93.9266 25.9098C87.9091 25.9098 81.7354 28.4683 81.7354 40.7751C81.7354 53.0818 88.7993 54.9098 94.7556 54.9098C99.6858 54.9098 102.679 52.8032 102.679 52.8032C102.802 52.7352 102.815 52.5653 102.815 52.4872V38.7432C102.812 38.5088 102.625 38.3219 102.394 38.3219H102.401ZM147.982 26.9597H142.909C142.674 26.9597 142.488 27.15 142.488 27.381V37.187H134.578V27.381C134.578 27.1466 134.387 26.9597 134.16 26.9597H129.083C128.856 26.9597 128.669 27.15 128.669 27.381V53.9312C128.669 54.1657 128.856 54.356 129.083 54.356H134.16C134.391 54.356 134.578 54.1657 134.578 53.9312V42.5759H142.488L142.471 53.9312C142.471 54.1657 142.657 54.3526 142.885 54.3526H147.961C148.196 54.3526 148.376 54.1623 148.376 53.9312L148.393 27.3776C148.396 27.1432 148.206 26.9563 147.978 26.9563L147.982 26.9597ZM108.462 27.5611C106.655 27.5611 105.19 29.0392 105.19 30.8638C105.19 32.6884 106.655 34.1698 108.462 34.1698C110.27 34.1698 111.734 32.6918 111.734 30.8638C111.734 29.0392 110.27 27.5611 108.462 27.5611ZM111.374 36.0793C111.374 35.8483 111.187 35.6546 110.96 35.6546H105.9C105.662 35.6546 105.462 35.8925 105.462 36.1269C105.462 36.1269 105.462 50.8767 105.462 53.6866C105.462 54.1997 105.781 54.356 106.199 54.356C106.199 54.356 108.357 54.356 110.759 54.356C111.255 54.356 111.388 54.1113 111.388 53.6764C111.384 52.7352 111.384 49.0486 111.384 48.3351C111.381 47.6556 111.381 36.0793 111.381 36.0793H111.374ZM167.624 35.6954H162.589C162.358 35.6954 162.174 35.8857 162.174 36.1201V49.137C162.174 49.137 160.897 50.0782 159.075 50.0782C157.261 50.0782 156.775 49.2559 156.775 47.4721C156.775 45.695 156.775 36.1167 156.775 36.1167C156.775 35.8823 156.585 35.692 156.357 35.692H151.25C151.016 35.692 150.832 35.8823 150.832 36.1167C150.832 36.1167 150.832 43.0482 150.832 48.3317C150.832 53.6153 153.775 54.9064 157.822 54.9064C161.141 54.9064 163.826 53.0716 163.826 53.0716C163.826 53.0716 163.951 54.0366 164.012 54.1487C164.067 54.2642 164.216 54.3798 164.379 54.3798H167.614C167.845 54.3798 168.032 54.1895 168.032 53.955L168.046 36.1167C168.035 35.8857 167.845 35.6954 167.617 35.6954H167.624ZM181.412 35.0974C178.552 35.0974 176.608 36.3749 176.608 36.3749V27.3844C176.608 27.15 176.418 26.9631 176.193 26.9631H171.1C170.873 26.9631 170.686 27.1534 170.686 27.3844L170.672 53.938C170.672 54.1725 170.862 54.3594 171.09 54.3594C171.09 54.3594 174.634 54.3594 174.637 54.3594C174.794 54.3594 174.913 54.2778 175.004 54.1351C175.096 53.9924 175.218 52.9085 175.218 52.9085C175.218 52.9085 177.294 54.8826 181.236 54.8826C185.864 54.8826 188.514 52.5348 188.514 44.3461C188.514 36.1677 184.273 35.0974 181.412 35.0974ZM179.428 50.0612C177.682 50.0068 176.499 49.2151 176.499 49.2151V40.8022C176.499 40.8022 177.668 40.0853 179.105 39.9562C180.92 39.7965 182.673 40.3435 182.673 44.6689C182.663 49.2287 181.875 50.1291 179.432 50.0578L179.428 50.0612ZM126.036 49.9626C125.811 49.9626 125.244 50.051 124.659 50.051C122.794 50.051 122.155 49.1812 122.155 48.0565C122.155 46.9284 122.155 40.5882 122.155 40.5882H125.964C126.199 40.5882 126.382 40.4013 126.382 40.1635V36.0725C126.385 35.8381 126.199 35.6478 125.964 35.6478H122.155L122.148 30.6191C122.148 30.4288 122.047 30.3337 121.829 30.3337H116.644C116.444 30.3337 116.331 30.422 116.331 30.6157V35.8109C116.331 35.8109 113.732 36.4395 113.556 36.4905C113.379 36.5414 113.256 36.7045 113.256 36.8948V40.1635C113.256 40.3979 113.447 40.5882 113.674 40.5882H116.331C116.331 40.5882 116.331 44.003 116.331 48.4438C116.331 54.2778 120.426 54.852 123.188 54.852C124.449 54.852 125.957 54.4409 126.209 54.3526C126.362 54.2982 126.447 54.1419 126.447 53.9754L126.45 50.384C126.45 50.1495 126.253 49.9626 126.036 49.9626Z" fill="white"/>
</svg>
