<svg width="193" height="81" viewBox="0 0 193 81" fill="none" xmlns="http://www.w3.org/2000/svg">
<path d="M32.6557 25.6295C34.1867 26.8732 34.761 26.7783 37.6357 26.5865L64.7378 24.9592C65.3124 24.9592 64.8345 24.3857 64.643 24.2904L60.1417 21.0365C59.2794 20.367 58.1302 19.6001 55.9281 19.792L29.6852 21.706C28.7282 21.8009 28.537 22.2794 28.9182 22.663L32.6557 25.6295ZM34.2829 31.9455V60.4617C34.2829 61.9941 35.0487 62.5676 36.7725 62.4728L66.5575 60.7493C68.2821 60.6545 68.4742 59.6001 68.4742 58.3554V30.0307C68.4742 28.7877 67.9963 28.1174 66.9404 28.2131L35.8146 30.0307C34.666 30.1272 34.2829 30.7017 34.2829 31.9455ZM63.6867 33.4752C63.8777 34.3373 63.6867 35.1987 62.823 35.2955L61.3879 35.5815V56.6337C60.1417 57.3035 58.9928 57.6863 58.0354 57.6863C56.5025 57.6863 56.1185 57.2076 54.9703 55.7729L45.5831 41.0362V55.2946L48.5535 55.9647C48.5535 55.9647 48.5535 57.6863 46.157 57.6863L39.5502 58.0695C39.3583 57.6863 39.5502 56.7304 40.2203 56.5386L41.9444 56.061V37.2088L39.5506 37.017C39.3586 36.1549 39.8368 34.9119 41.1785 34.8154L48.2662 34.3377L58.0354 49.2663V36.06L55.5446 35.7741C55.3534 34.7202 56.1185 33.9549 57.0764 33.86L63.6867 33.4752ZM27.4818 19.1224L54.7787 17.1122C58.1309 16.8247 58.9932 17.0173 61.1002 18.5478L69.8134 24.672C71.2514 25.7252 71.7305 26.0119 71.7305 27.16V60.7493C71.7305 62.8542 70.9637 64.0993 68.2825 64.2896L36.5828 66.2041C34.5702 66.3 33.6123 66.013 32.5584 64.6724L26.1416 56.3472C24.9918 54.8148 24.5137 53.6681 24.5137 52.3267V22.4705C24.5137 20.749 25.2807 19.3131 27.4818 19.1224Z" fill="white"/>
<path d="M83.8895 28.7058H88.6415L100.377 47.6418H100.449V28.7058H104.733V54.4098H99.9815L88.2815 35.5098H88.1735V54.4098H83.8895V28.7058ZM118.01 54.9138C116.522 54.9138 115.19 54.6738 114.014 54.1938C112.862 53.6898 111.878 53.0058 111.062 52.1418C110.27 51.2778 109.658 50.2458 109.226 49.0458C108.818 47.8458 108.614 46.5258 108.614 45.0858C108.614 43.6698 108.818 42.3618 109.226 41.1618C109.658 39.9618 110.27 38.9298 111.062 38.0658C111.878 37.2018 112.862 36.5298 114.014 36.0498C115.19 35.5458 116.522 35.2938 118.01 35.2938C119.498 35.2938 120.818 35.5458 121.97 36.0498C123.146 36.5298 124.13 37.2018 124.922 38.0658C125.738 38.9298 126.35 39.9618 126.758 41.1618C127.19 42.3618 127.406 43.6698 127.406 45.0858C127.406 46.5258 127.19 47.8458 126.758 49.0458C126.35 50.2458 125.738 51.2778 124.922 52.1418C124.13 53.0058 123.146 53.6898 121.97 54.1938C120.818 54.6738 119.498 54.9138 118.01 54.9138ZM118.01 51.6738C118.922 51.6738 119.714 51.4818 120.386 51.0978C121.058 50.7138 121.61 50.2098 122.042 49.5858C122.474 48.9618 122.786 48.2658 122.978 47.4978C123.194 46.7058 123.302 45.9018 123.302 45.0858C123.302 44.2938 123.194 43.5018 122.978 42.7098C122.786 41.9178 122.474 41.2218 122.042 40.6218C121.61 39.9978 121.058 39.4938 120.386 39.1098C119.714 38.7258 118.922 38.5338 118.01 38.5338C117.098 38.5338 116.306 38.7258 115.634 39.1098C114.962 39.4938 114.41 39.9978 113.978 40.6218C113.546 41.2218 113.222 41.9178 113.006 42.7098C112.814 43.5018 112.718 44.2938 112.718 45.0858C112.718 45.9018 112.814 46.7058 113.006 47.4978C113.222 48.2658 113.546 48.9618 113.978 49.5858C114.41 50.2098 114.962 50.7138 115.634 51.0978C116.306 51.4818 117.098 51.6738 118.01 51.6738ZM128.949 35.7978H132.045V30.2178H136.149V35.7978H139.857V38.8578H136.149V48.7938C136.149 49.2258 136.161 49.5978 136.185 49.9098C136.233 50.2218 136.317 50.4858 136.437 50.7018C136.581 50.9178 136.785 51.0858 137.049 51.2058C137.313 51.3018 137.673 51.3498 138.129 51.3498C138.417 51.3498 138.705 51.3498 138.993 51.3498C139.281 51.3258 139.569 51.2778 139.857 51.2058V54.3738C139.401 54.4218 138.957 54.4698 138.525 54.5178C138.093 54.5658 137.649 54.5898 137.193 54.5898C136.113 54.5898 135.237 54.4938 134.565 54.3018C133.917 54.0858 133.401 53.7858 133.017 53.4018C132.657 52.9938 132.405 52.4898 132.261 51.8898C132.141 51.2898 132.069 50.6058 132.045 49.8378V38.8578H128.949V35.7978ZM142.921 28.7058H147.025V32.5938H142.921V28.7058ZM142.921 35.7978H147.025V54.4098H142.921V35.7978ZM160.032 54.9138C158.544 54.9138 157.212 54.6738 156.036 54.1938C154.884 53.6898 153.9 53.0058 153.084 52.1418C152.292 51.2778 151.68 50.2458 151.248 49.0458C150.84 47.8458 150.636 46.5258 150.636 45.0858C150.636 43.6698 150.84 42.3618 151.248 41.1618C151.68 39.9618 152.292 38.9298 153.084 38.0658C153.9 37.2018 154.884 36.5298 156.036 36.0498C157.212 35.5458 158.544 35.2938 160.032 35.2938C161.52 35.2938 162.84 35.5458 163.992 36.0498C165.168 36.5298 166.152 37.2018 166.944 38.0658C167.76 38.9298 168.372 39.9618 168.78 41.1618C169.212 42.3618 169.428 43.6698 169.428 45.0858C169.428 46.5258 169.212 47.8458 168.78 49.0458C168.372 50.2458 167.76 51.2778 166.944 52.1418C166.152 53.0058 165.168 53.6898 163.992 54.1938C162.84 54.6738 161.52 54.9138 160.032 54.9138ZM160.032 51.6738C160.944 51.6738 161.736 51.4818 162.408 51.0978C163.08 50.7138 163.632 50.2098 164.064 49.5858C164.496 48.9618 164.808 48.2658 165 47.4978C165.216 46.7058 165.324 45.9018 165.324 45.0858C165.324 44.2938 165.216 43.5018 165 42.7098C164.808 41.9178 164.496 41.2218 164.064 40.6218C163.632 39.9978 163.08 39.4938 162.408 39.1098C161.736 38.7258 160.944 38.5338 160.032 38.5338C159.12 38.5338 158.328 38.7258 157.656 39.1098C156.984 39.4938 156.432 39.9978 156 40.6218C155.568 41.2218 155.244 41.9178 155.028 42.7098C154.836 43.5018 154.74 44.2938 154.74 45.0858C154.74 45.9018 154.836 46.7058 155.028 47.4978C155.244 48.2658 155.568 48.9618 156 49.5858C156.432 50.2098 156.984 50.7138 157.656 51.0978C158.328 51.4818 159.12 51.6738 160.032 51.6738ZM172.844 35.7978H176.732V38.5338L176.804 38.6058C177.428 37.5738 178.244 36.7698 179.252 36.1938C180.26 35.5938 181.376 35.2938 182.6 35.2938C184.64 35.2938 186.248 35.8218 187.424 36.8778C188.6 37.9338 189.188 39.5178 189.188 41.6298V54.4098H185.084V42.7098C185.036 41.2458 184.724 40.1898 184.148 39.5418C183.572 38.8698 182.672 38.5338 181.448 38.5338C180.752 38.5338 180.128 38.6658 179.576 38.9298C179.024 39.1698 178.556 39.5178 178.172 39.9738C177.788 40.4058 177.488 40.9218 177.272 41.5218C177.056 42.1218 176.948 42.7578 176.948 43.4298V54.4098H172.844V35.7978Z" fill="white"/>
</svg>
