<svg width="91" height="81" viewBox="0 0 91 81" fill="none" xmlns="http://www.w3.org/2000/svg">
<path d="M0.333008 37.8642V53.0366H25.5894V58.1249H45.7576V53.0366H91V22.6947H0.335899V37.8671L0.333008 37.8642ZM25.5865 37.8642V47.9483H20.4983V32.8684H15.5921V47.9483H5.23627V27.7801H25.5865V37.8642ZM50.8083 37.8815L50.7533 47.9656L40.8514 47.9309V53.0366H30.4956V27.7801H50.8459L50.8112 37.8815H50.8083ZM86.091 37.8642V47.9483H81.0027V32.8684H75.9144V48.0408L70.8261 47.9309V32.8684H65.9199V47.9483H55.7462V27.7801H86.0881L86.091 37.8642ZM40.8514 37.8642V42.86H45.5754V32.8655H40.8514V37.8613V37.8642Z" fill="white"/>
</svg>
