<svg width="199" height="81" viewBox="0 0 199 81" fill="none" xmlns="http://www.w3.org/2000/svg">
<path d="M54.3754 35.0532C55.035 33.0666 55.2632 30.962 55.0446 28.8802C54.826 26.7983 54.1656 24.7871 53.1076 22.9808C51.5391 20.2507 49.1441 18.0892 46.268 16.8079C43.3918 15.5266 40.1831 15.1918 37.1044 15.8517C35.3553 13.9061 33.1251 12.455 30.6377 11.6441C28.1503 10.8332 25.4933 10.691 22.9336 11.232C20.3739 11.7729 18.0015 12.9778 16.0549 14.7257C14.1082 16.4737 12.6558 18.703 11.8434 21.19C9.79231 21.6105 7.85464 22.4641 6.15986 23.6935C4.46508 24.9229 3.05222 26.4999 2.01572 28.3191C0.430188 31.0447 -0.247459 34.2039 0.0807518 37.34C0.408963 40.4761 1.72602 43.4266 3.84152 45.7649C3.17941 47.7505 2.94896 49.8547 3.1656 51.9366C3.38224 54.0185 4.04097 56.0302 5.09773 57.837C6.6682 60.5681 9.06526 62.7301 11.9434 64.0114C14.8216 65.2927 18.0323 65.6271 21.1127 64.9664C22.5023 66.5312 24.2098 67.7816 26.1211 68.634C28.0324 69.4865 30.1036 69.9213 32.1963 69.9096C35.3519 69.9125 38.4268 68.9126 40.9772 67.0542C43.5275 65.1958 45.4213 62.5751 46.3853 59.5703C48.4361 59.149 50.3735 58.2952 52.0682 57.0658C53.7629 55.8364 55.1759 54.2597 56.213 52.4409C57.7797 49.7193 58.4457 46.572 58.1157 43.449C57.7856 40.326 56.4764 37.3872 54.3754 35.0532ZM32.1963 66.048C29.612 66.0521 27.1086 65.1463 25.1252 63.4894L25.4741 63.2917L37.2207 56.5112C37.513 56.3397 37.7558 56.0952 37.925 55.8015C38.0943 55.5079 38.1842 55.1753 38.1861 54.8363V38.2748L43.1519 41.1476C43.1764 41.1601 43.1977 41.1781 43.2139 41.2003C43.2301 41.2226 43.2409 41.2483 43.2453 41.2755V54.9993C43.2391 57.9277 42.073 60.7344 40.0022 62.8051C37.9315 64.8758 35.1248 66.0418 32.1963 66.048ZM8.4472 55.9064C7.1511 53.6684 6.68574 51.045 7.13297 48.4978L7.48206 48.7072L19.2402 55.4878C19.5312 55.6585 19.8624 55.7485 20.1997 55.7485C20.537 55.7485 20.8683 55.6585 21.1592 55.4878L35.5227 47.2069V52.9407C35.5214 52.9704 35.5133 52.9995 35.4992 53.0256C35.4851 53.0518 35.4652 53.0745 35.4411 53.0919L23.5433 59.9538C21.0041 61.4166 17.9883 61.8119 15.158 61.0531C12.3276 60.2942 9.91403 58.4432 8.4472 55.9064ZM5.35364 30.3197C6.65872 28.0673 8.71867 26.3493 11.1688 25.4699V39.4263C11.1644 39.7635 11.2505 40.0957 11.4183 40.3882C11.586 40.6807 11.8292 40.9229 12.1224 41.0894L26.4161 49.3353L21.45 52.2079C21.4231 52.2222 21.3932 52.2296 21.3627 52.2296C21.3323 52.2296 21.3024 52.2222 21.2755 52.2079L9.40103 45.3578C6.86664 43.8887 5.0177 41.4752 4.25911 38.6457C3.50051 35.8163 3.89408 32.8015 5.35364 30.2617V30.3197ZM46.1528 39.7985L31.8126 31.4712L36.7671 28.6097C36.794 28.5954 36.824 28.5879 36.8544 28.5879C36.8848 28.5879 36.9148 28.5954 36.9417 28.6097L48.8161 35.4716C50.6317 36.5192 52.1118 38.0617 53.0837 39.919C54.0555 41.7762 54.4789 43.8717 54.3046 45.9606C54.1302 48.0494 53.3652 50.0456 52.0989 51.7161C50.8326 53.3865 49.1172 54.6623 47.153 55.3944V41.438C47.1427 41.1014 47.0451 40.7732 46.8697 40.4857C46.6943 40.1983 46.4474 39.9616 46.1528 39.7985ZM51.0957 32.3667L50.7466 32.1573L39.0118 25.3187C38.7191 25.1469 38.3858 25.0564 38.0464 25.0564C37.707 25.0564 37.3738 25.1469 37.081 25.3187L22.7296 33.5993V27.8658C22.7265 27.8366 22.7314 27.8072 22.7437 27.7806C22.756 27.754 22.7752 27.7312 22.7994 27.7146L34.6738 20.8642C36.4938 19.8158 38.5746 19.3072 40.673 19.398C42.7713 19.4887 44.8005 20.1751 46.5231 21.3767C48.2457 22.5784 49.5905 24.2457 50.4003 26.1836C51.2101 28.1216 51.4514 30.25 51.096 32.32L51.0957 32.3667ZM20.0193 42.5312L15.0535 39.6702C15.0286 39.6552 15.0074 39.635 14.9912 39.6109C14.9751 39.5868 14.9644 39.5595 14.96 39.5308V25.8421C14.9628 23.7421 15.5633 21.6863 16.6913 19.9151C17.8194 18.1438 19.4284 16.7303 21.3302 15.8398C23.232 14.9492 25.348 14.6185 27.4308 14.8863C29.5136 15.154 31.4772 16.0092 33.0919 17.3518L32.7428 17.5497L20.9965 24.3297C20.7041 24.5012 20.4614 24.7458 20.2921 25.0394C20.1229 25.333 20.0329 25.6657 20.0311 26.0046L20.0193 42.5312ZM22.7175 36.7163L29.1141 33.0293L35.5227 36.7163V44.0898L29.1375 47.7765L22.7293 44.0898L22.7175 36.7163Z" fill="white"/>
<path d="M76.8782 31.7658C75.5102 31.7658 74.3222 32.0418 73.3142 32.5938C72.3302 33.1458 71.5262 33.8898 70.9022 34.8258C70.2782 35.7378 69.8102 36.7818 69.4982 37.9578C69.2102 39.1338 69.0662 40.3338 69.0662 41.5578C69.0662 42.7818 69.2102 43.9818 69.4982 45.1578C69.8102 46.3338 70.2782 47.3898 70.9022 48.3258C71.5262 49.2378 72.3302 49.9698 73.3142 50.5218C74.3222 51.0738 75.5102 51.3498 76.8782 51.3498C78.2462 51.3498 79.4222 51.0738 80.4062 50.5218C81.4142 49.9698 82.2302 49.2378 82.8542 48.3258C83.4782 47.3898 83.9342 46.3338 84.2222 45.1578C84.5342 43.9818 84.6902 42.7818 84.6902 41.5578C84.6902 40.3338 84.5342 39.1338 84.2222 37.9578C83.9342 36.7818 83.4782 35.7378 82.8542 34.8258C82.2302 33.8898 81.4142 33.1458 80.4062 32.5938C79.4222 32.0418 78.2462 31.7658 76.8782 31.7658ZM76.8782 28.0938C78.7982 28.0938 80.5142 28.4538 82.0262 29.1738C83.5622 29.8938 84.8582 30.8658 85.9142 32.0898C86.9702 33.3138 87.7742 34.7418 88.3262 36.3738C88.9022 38.0058 89.1902 39.7338 89.1902 41.5578C89.1902 43.4058 88.9022 45.1458 88.3262 46.7778C87.7742 48.4098 86.9702 49.8378 85.9142 51.0618C84.8582 52.2858 83.5622 53.2578 82.0262 53.9778C80.5142 54.6738 78.7982 55.0218 76.8782 55.0218C74.9582 55.0218 73.2302 54.6738 71.6942 53.9778C70.1822 53.2578 68.8982 52.2858 67.8422 51.0618C66.7862 49.8378 65.9702 48.4098 65.3942 46.7778C64.8422 45.1458 64.5662 43.4058 64.5662 41.5578C64.5662 39.7338 64.8422 38.0058 65.3942 36.3738C65.9702 34.7418 66.7862 33.3138 67.8422 32.0898C68.8982 30.8658 70.1822 29.8938 71.6942 29.1738C73.2302 28.4538 74.9582 28.0938 76.8782 28.0938ZM92.8214 35.7978H96.7094V38.3178H96.7814C97.3574 37.2378 98.1614 36.4698 99.1934 36.0138C100.225 35.5338 101.341 35.2938 102.541 35.2938C104.005 35.2938 105.277 35.5578 106.357 36.0858C107.461 36.5898 108.373 37.2978 109.093 38.2098C109.813 39.0978 110.353 40.1418 110.713 41.3418C111.073 42.5418 111.253 43.8258 111.253 45.1938C111.253 46.4418 111.085 47.6538 110.749 48.8298C110.437 50.0058 109.945 51.0498 109.273 51.9618C108.625 52.8498 107.797 53.5698 106.789 54.1218C105.781 54.6498 104.593 54.9138 103.225 54.9138C102.625 54.9138 102.025 54.8538 101.425 54.7338C100.825 54.6378 100.249 54.4698 99.6974 54.2298C99.1454 53.9898 98.6294 53.6898 98.1494 53.3298C97.6934 52.9458 97.3094 52.5018 96.9974 51.9978H96.9254V61.2858H92.8214V35.7978ZM107.149 45.1218C107.149 44.2818 107.041 43.4658 106.825 42.6738C106.609 41.8818 106.285 41.1858 105.853 40.5858C105.421 39.9618 104.881 39.4698 104.233 39.1098C103.585 38.7258 102.841 38.5338 102.001 38.5338C100.273 38.5338 98.9654 39.1338 98.0774 40.3338C97.2134 41.5338 96.7814 43.1298 96.7814 45.1218C96.7814 46.0578 96.8894 46.9338 97.1054 47.7498C97.3454 48.5418 97.6934 49.2258 98.1494 49.8018C98.6054 50.3778 99.1454 50.8338 99.7694 51.1698C100.417 51.5058 101.161 51.6738 102.001 51.6738C102.937 51.6738 103.729 51.4818 104.377 51.0978C105.025 50.7138 105.553 50.2218 105.961 49.6218C106.393 48.9978 106.693 48.3018 106.861 47.5338C107.053 46.7418 107.149 45.9378 107.149 45.1218ZM127.505 43.4658C127.457 42.8178 127.313 42.1938 127.073 41.5938C126.857 40.9938 126.545 40.4778 126.137 40.0458C125.753 39.5898 125.273 39.2298 124.697 38.9658C124.145 38.6778 123.521 38.5338 122.825 38.5338C122.105 38.5338 121.445 38.6658 120.845 38.9298C120.269 39.1698 119.765 39.5178 119.333 39.9738C118.925 40.4058 118.589 40.9218 118.325 41.5218C118.085 42.1218 117.953 42.7698 117.929 43.4658H127.505ZM117.929 46.1658C117.929 46.8858 118.025 47.5818 118.217 48.2538C118.433 48.9258 118.745 49.5138 119.153 50.0178C119.561 50.5218 120.077 50.9298 120.701 51.2418C121.325 51.5298 122.069 51.6738 122.933 51.6738C124.133 51.6738 125.093 51.4218 125.813 50.9178C126.557 50.3898 127.109 49.6098 127.469 48.5778H131.357C131.141 49.5858 130.769 50.4858 130.241 51.2778C129.713 52.0698 129.077 52.7418 128.333 53.2938C127.589 53.8218 126.749 54.2178 125.813 54.4818C124.901 54.7698 123.941 54.9138 122.933 54.9138C121.469 54.9138 120.173 54.6738 119.045 54.1938C117.917 53.7138 116.957 53.0418 116.165 52.1778C115.397 51.3138 114.809 50.2818 114.401 49.0818C114.017 47.8818 113.825 46.5618 113.825 45.1218C113.825 43.8018 114.029 42.5538 114.437 41.3778C114.869 40.1778 115.469 39.1338 116.237 38.2458C117.029 37.3338 117.977 36.6138 119.081 36.0858C120.185 35.5578 121.433 35.2938 122.825 35.2938C124.289 35.2938 125.597 35.6058 126.749 36.2298C127.925 36.8298 128.897 37.6338 129.665 38.6418C130.433 39.6498 130.985 40.8138 131.321 42.1338C131.681 43.4298 131.777 44.7738 131.609 46.1658H117.929ZM134.732 35.7978H138.62V38.5338L138.692 38.6058C139.316 37.5738 140.132 36.7698 141.14 36.1938C142.148 35.5938 143.264 35.2938 144.488 35.2938C146.528 35.2938 148.136 35.8218 149.312 36.8778C150.488 37.9338 151.076 39.5178 151.076 41.6298V54.4098H146.972V42.7098C146.924 41.2458 146.612 40.1898 146.036 39.5418C145.46 38.8698 144.56 38.5338 143.336 38.5338C142.64 38.5338 142.016 38.6658 141.464 38.9298C140.912 39.1698 140.444 39.5178 140.06 39.9738C139.676 40.4058 139.376 40.9218 139.16 41.5218C138.944 42.1218 138.836 42.7578 138.836 43.4298V54.4098H134.732V35.7978ZM172.883 28.7058H177.671L187.571 54.4098H182.747L180.335 47.6058H170.075L167.663 54.4098H163.019L172.883 28.7058ZM171.299 44.1858H179.147L175.295 33.1338H175.187L171.299 44.1858ZM190.022 28.7058H194.522V54.4098H190.022V28.7058Z" fill="white"/>
</svg>
