<svg width="169" height="81" viewBox="0 0 169 81" fill="none" xmlns="http://www.w3.org/2000/svg">
<path d="M84.3087 30.8456C77.7094 30.8456 72.9512 35.1495 72.9512 41.6053C72.9512 48.0612 78.3072 52.3651 84.9065 52.3651C88.8936 52.3651 92.4084 50.787 94.5843 48.1269L90.0114 45.4848C88.8039 46.8059 86.9688 47.577 84.9065 47.577C82.0432 47.577 79.6103 46.0826 78.7077 43.6915H95.457C95.5885 43.022 95.6662 42.3286 95.6662 41.5993C95.6662 35.1495 90.908 30.8456 84.3087 30.8456ZM78.6539 39.5131C79.4011 37.1281 81.4454 35.6277 84.3027 35.6277C87.166 35.6277 89.2104 37.1281 89.9516 39.5131H78.6539ZM148.676 30.8456C142.077 30.8456 137.318 35.1495 137.318 41.6053C137.318 48.0612 142.674 52.3651 149.274 52.3651C153.261 52.3651 156.776 50.787 158.952 48.1269L154.379 45.4848C153.171 46.8059 151.336 47.577 149.274 47.577C146.41 47.577 143.978 46.0826 143.075 43.6915H159.824C159.956 43.022 160.034 42.3286 160.034 41.5993C160.034 35.1495 155.275 30.8456 148.676 30.8456ZM143.027 39.5131C143.774 37.1281 145.819 35.6277 148.676 35.6277C151.539 35.6277 153.584 37.1281 154.325 39.5131H143.027ZM119.696 41.6053C119.696 45.1919 122.04 47.583 125.674 47.583C128.137 47.583 129.984 46.4651 130.934 44.642L135.525 47.2901C133.624 50.4582 130.062 52.3651 125.674 52.3651C119.069 52.3651 114.316 48.0612 114.316 41.6053C114.316 35.1495 119.075 30.8456 125.674 30.8456C130.062 30.8456 133.618 32.7524 135.525 35.9206L130.934 38.5687C129.984 36.7455 128.137 35.6277 125.674 35.6277C122.046 35.6277 119.696 38.0187 119.696 41.6053ZM169 24.2701V51.7673H163.62V24.2701H169ZM22.0874 21.2813L44.1748 59.5383H0L22.0874 21.2813ZM77.3089 24.2701L60.7448 52.9628L44.1808 24.2701H50.3916L60.7448 42.2031L71.0981 24.2701H77.3089ZM112.523 31.4433V37.2357C111.925 37.0623 111.292 36.9428 110.61 36.9428C107.137 36.9428 104.633 39.3338 104.633 42.9204V51.7673H99.2528V31.4433H104.633V36.9428C104.633 33.9061 108.165 31.4433 112.523 31.4433Z" fill="white"/>
</svg>
