<svg width="201" height="81" viewBox="0 0 201 81" fill="none" xmlns="http://www.w3.org/2000/svg">
<path d="M46 58.8098L34.6917 63.4098L16.1 45.0098L4.40833 54.2098L0 51.7181V29.1015L4.40833 26.8015L16.1 36.0015L34.6917 17.4098L46 22.0098V58.8098ZM22.425 40.4098L34.5 49.9931V30.8265L22.425 40.4098ZM4.40833 47.5015L11.5 40.4098L4.6 33.3181L4.40833 47.5015Z" fill="white"/>
<path d="M61.82 28.7058H66.5L72.944 49.0458H73.016L79.604 28.7058H84.176L75.392 54.4098H70.388L61.82 28.7058ZM89.6994 45.8418C89.6994 46.8258 89.8674 47.6658 90.2034 48.3618C90.5394 49.0578 91.0074 49.6338 91.6074 50.0898C92.2074 50.5218 92.8914 50.8458 93.6594 51.0618C94.4514 51.2538 95.3034 51.3498 96.2154 51.3498C97.1994 51.3498 98.0394 51.2418 98.7354 51.0258C99.4314 50.7858 99.9954 50.4858 100.427 50.1258C100.859 49.7658 101.171 49.3578 101.363 48.9018C101.555 48.4218 101.651 47.9418 101.651 47.4618C101.651 46.4778 101.423 45.7578 100.967 45.3018C100.535 44.8218 100.055 44.4858 99.5274 44.2938C98.6154 43.9578 97.5474 43.6458 96.3234 43.3578C95.1234 43.0458 93.6354 42.6498 91.8594 42.1698C90.7554 41.8818 89.8314 41.5098 89.0874 41.0538C88.3674 40.5738 87.7914 40.0458 87.3594 39.4698C86.9274 38.8938 86.6154 38.2818 86.4234 37.6338C86.2554 36.9858 86.1714 36.3258 86.1714 35.6538C86.1714 34.3578 86.4354 33.2418 86.9634 32.3058C87.5154 31.3458 88.2354 30.5538 89.1234 29.9298C90.0114 29.3058 91.0194 28.8498 92.1474 28.5618C93.2754 28.2498 94.4154 28.0938 95.5674 28.0938C96.9114 28.0938 98.1714 28.2738 99.3474 28.6338C100.547 28.9698 101.591 29.4858 102.479 30.1818C103.391 30.8778 104.111 31.7418 104.639 32.7738C105.167 33.7818 105.431 34.9578 105.431 36.3018H100.931C100.811 34.6458 100.247 33.4818 99.2394 32.8098C98.2314 32.1138 96.9474 31.7658 95.3874 31.7658C94.8594 31.7658 94.3194 31.8258 93.7674 31.9458C93.2154 32.0418 92.7114 32.2218 92.2554 32.4858C91.7994 32.7258 91.4154 33.0618 91.1034 33.4938C90.8154 33.9258 90.6714 34.4658 90.6714 35.1138C90.6714 36.0258 90.9474 36.7458 91.4994 37.2738C92.0754 37.7778 92.8194 38.1618 93.7314 38.4258C93.8274 38.4498 94.1994 38.5578 94.8474 38.7498C95.5194 38.9178 96.2634 39.1098 97.0794 39.3258C97.8954 39.5418 98.6874 39.7578 99.4554 39.9738C100.247 40.1658 100.811 40.3098 101.147 40.4058C101.987 40.6698 102.719 41.0298 103.343 41.4858C103.967 41.9418 104.483 42.4698 104.891 43.0698C105.323 43.6458 105.635 44.2698 105.827 44.9418C106.043 45.6138 106.151 46.2858 106.151 46.9578C106.151 48.3978 105.851 49.6338 105.251 50.6658C104.675 51.6738 103.907 52.5018 102.947 53.1498C101.987 53.7978 100.895 54.2658 99.6714 54.5538C98.4474 54.8658 97.1994 55.0218 95.9274 55.0218C94.4634 55.0218 93.0834 54.8418 91.7874 54.4818C90.4914 54.1218 89.3634 53.5698 88.4034 52.8258C87.4434 52.0818 86.6754 51.1338 86.0994 49.9818C85.5234 48.8058 85.2234 47.4258 85.1994 45.8418H89.6994ZM132.106 42.0258C131.938 40.8738 131.47 40.0098 130.702 39.4338C129.958 38.8338 129.01 38.5338 127.858 38.5338C127.33 38.5338 126.766 38.6298 126.166 38.8218C125.566 38.9898 125.014 39.3258 124.51 39.8298C124.006 40.3098 123.586 40.9938 123.25 41.8818C122.914 42.7458 122.746 43.8858 122.746 45.3018C122.746 46.0698 122.83 46.8378 122.998 47.6058C123.19 48.3738 123.478 49.0578 123.862 49.6578C124.27 50.2578 124.786 50.7498 125.41 51.1338C126.034 51.4938 126.79 51.6738 127.678 51.6738C128.878 51.6738 129.862 51.3018 130.63 50.5578C131.422 49.8138 131.914 48.7698 132.106 47.4258H136.21C135.826 49.8498 134.902 51.7098 133.438 53.0058C131.998 54.2778 130.078 54.9138 127.678 54.9138C126.214 54.9138 124.918 54.6738 123.79 54.1938C122.686 53.6898 121.75 53.0178 120.982 52.1778C120.214 51.3138 119.626 50.2938 119.218 49.1178C118.834 47.9418 118.642 46.6698 118.642 45.3018C118.642 43.9098 118.834 42.6018 119.218 41.3778C119.602 40.1538 120.178 39.0978 120.946 38.2098C121.714 37.2978 122.662 36.5898 123.79 36.0858C124.942 35.5578 126.286 35.2938 127.822 35.2938C128.902 35.2938 129.922 35.4378 130.882 35.7258C131.866 35.9898 132.73 36.3978 133.474 36.9498C134.242 37.5018 134.866 38.1978 135.346 39.0378C135.826 39.8778 136.114 40.8738 136.21 42.0258H132.106ZM148.081 54.9138C146.593 54.9138 145.261 54.6738 144.085 54.1938C142.933 53.6898 141.949 53.0058 141.133 52.1418C140.341 51.2778 139.729 50.2458 139.297 49.0458C138.889 47.8458 138.685 46.5258 138.685 45.0858C138.685 43.6698 138.889 42.3618 139.297 41.1618C139.729 39.9618 140.341 38.9298 141.133 38.0658C141.949 37.2018 142.933 36.5298 144.085 36.0498C145.261 35.5458 146.593 35.2938 148.081 35.2938C149.569 35.2938 150.889 35.5458 152.041 36.0498C153.217 36.5298 154.201 37.2018 154.993 38.0658C155.809 38.9298 156.421 39.9618 156.829 41.1618C157.261 42.3618 157.477 43.6698 157.477 45.0858C157.477 46.5258 157.261 47.8458 156.829 49.0458C156.421 50.2458 155.809 51.2778 154.993 52.1418C154.201 53.0058 153.217 53.6898 152.041 54.1938C150.889 54.6738 149.569 54.9138 148.081 54.9138ZM148.081 51.6738C148.993 51.6738 149.785 51.4818 150.457 51.0978C151.129 50.7138 151.681 50.2098 152.113 49.5858C152.545 48.9618 152.857 48.2658 153.049 47.4978C153.265 46.7058 153.373 45.9018 153.373 45.0858C153.373 44.2938 153.265 43.5018 153.049 42.7098C152.857 41.9178 152.545 41.2218 152.113 40.6218C151.681 39.9978 151.129 39.4938 150.457 39.1098C149.785 38.7258 148.993 38.5338 148.081 38.5338C147.169 38.5338 146.377 38.7258 145.705 39.1098C145.033 39.4938 144.481 39.9978 144.049 40.6218C143.617 41.2218 143.293 41.9178 143.077 42.7098C142.885 43.5018 142.789 44.2938 142.789 45.0858C142.789 45.9018 142.885 46.7058 143.077 47.4978C143.293 48.2658 143.617 48.9618 144.049 49.5858C144.481 50.2098 145.033 50.7138 145.705 51.0978C146.377 51.4818 147.169 51.6738 148.081 51.6738ZM178.425 54.4098H174.537V51.8898H174.465C173.913 52.9698 173.109 53.7498 172.053 54.2298C170.997 54.6858 169.881 54.9138 168.705 54.9138C167.241 54.9138 165.957 54.6618 164.853 54.1578C163.773 53.6298 162.873 52.9218 162.153 52.0338C161.433 51.1458 160.893 50.1018 160.533 48.9018C160.173 47.6778 159.993 46.3698 159.993 44.9778C159.993 43.2978 160.221 41.8458 160.677 40.6218C161.133 39.3978 161.733 38.3898 162.477 37.5978C163.245 36.8058 164.109 36.2298 165.069 35.8698C166.053 35.4858 167.049 35.2938 168.057 35.2938C168.633 35.2938 169.221 35.3538 169.821 35.4738C170.421 35.5698 170.997 35.7378 171.549 35.9778C172.101 36.2178 172.605 36.5298 173.061 36.9138C173.541 37.2738 173.937 37.7058 174.249 38.2098H174.321V28.7058H178.425V54.4098ZM164.097 45.3018C164.097 46.0938 164.193 46.8738 164.385 47.6418C164.601 48.4098 164.913 49.0938 165.321 49.6938C165.753 50.2938 166.293 50.7738 166.941 51.1338C167.589 51.4938 168.357 51.6738 169.245 51.6738C170.157 51.6738 170.937 51.4818 171.585 51.0978C172.257 50.7138 172.797 50.2098 173.205 49.5858C173.637 48.9618 173.949 48.2658 174.141 47.4978C174.357 46.7058 174.465 45.9018 174.465 45.0858C174.465 43.0218 173.997 41.4138 173.061 40.2618C172.149 39.1098 170.901 38.5338 169.317 38.5338C168.357 38.5338 167.541 38.7378 166.869 39.1458C166.221 39.5298 165.681 40.0458 165.249 40.6938C164.841 41.3178 164.541 42.0378 164.349 42.8538C164.181 43.6458 164.097 44.4618 164.097 45.3018ZM195.684 43.4658C195.636 42.8178 195.492 42.1938 195.252 41.5938C195.036 40.9938 194.724 40.4778 194.316 40.0458C193.932 39.5898 193.452 39.2298 192.876 38.9658C192.324 38.6778 191.7 38.5338 191.004 38.5338C190.284 38.5338 189.624 38.6658 189.024 38.9298C188.448 39.1698 187.944 39.5178 187.512 39.9738C187.104 40.4058 186.768 40.9218 186.504 41.5218C186.264 42.1218 186.132 42.7698 186.108 43.4658H195.684ZM186.108 46.1658C186.108 46.8858 186.204 47.5818 186.396 48.2538C186.612 48.9258 186.924 49.5138 187.332 50.0178C187.74 50.5218 188.256 50.9298 188.88 51.2418C189.504 51.5298 190.248 51.6738 191.112 51.6738C192.312 51.6738 193.272 51.4218 193.992 50.9178C194.736 50.3898 195.288 49.6098 195.648 48.5778H199.536C199.32 49.5858 198.948 50.4858 198.42 51.2778C197.892 52.0698 197.256 52.7418 196.512 53.2938C195.768 53.8218 194.928 54.2178 193.992 54.4818C193.08 54.7698 192.12 54.9138 191.112 54.9138C189.648 54.9138 188.352 54.6738 187.224 54.1938C186.096 53.7138 185.136 53.0418 184.344 52.1778C183.576 51.3138 182.988 50.2818 182.58 49.0818C182.196 47.8818 182.004 46.5618 182.004 45.1218C182.004 43.8018 182.208 42.5538 182.616 41.3778C183.048 40.1778 183.648 39.1338 184.416 38.2458C185.208 37.3338 186.156 36.6138 187.26 36.0858C188.364 35.5578 189.612 35.2938 191.004 35.2938C192.468 35.2938 193.776 35.6058 194.928 36.2298C196.104 36.8298 197.076 37.6338 197.844 38.6418C198.612 39.6498 199.164 40.8138 199.5 42.1338C199.86 43.4298 199.956 44.7738 199.788 46.1658H186.108Z" fill="white"/>
</svg>
